<svg width="682" height="124" viewBox="0 0 682 124" fill="none" xmlns="http://www.w3.org/2000/svg">
<path d="M66.3006 100.24L67.3406 103.054L67.3571 103.048L67.3736 103.042L66.3006 100.24ZM72.3006 96.48L74.4588 98.5638V98.5638L72.3006 96.48ZM75.4206 91.2L78.2962 92.0549L78.2993 92.0445L78.3023 92.0342L75.4206 91.2ZM75.2606 78.64L78.0729 77.5954V77.5954L75.2606 78.64ZM71.9006 73.92L69.9418 76.1922L69.9647 76.2119L69.9879 76.2312L71.9006 73.92ZM65.8206 70.88L65.0048 73.7669L65.0128 73.7692L65.0209 73.7714L65.8206 70.88ZM36.3006 69.84V66.84H33.3006V69.84H36.3006ZM36.3006 101.6H33.3006V104.6H36.3006V101.6ZM36.3006 22.16V19.16H33.3006V22.16H36.3006ZM36.3006 53.52H33.3006V56.52H36.3006V53.52ZM61.0206 52.72L61.6205 55.6594L61.6492 55.6536L61.6777 55.6471L61.0206 52.72ZM71.5806 45.2L68.8694 43.9157L68.8619 43.9316L68.8546 43.9475L71.5806 45.2ZM71.8206 30.56L69.0056 31.5971L69.0175 31.6294L69.0302 31.6615L71.8206 30.56ZM68.3006 25.68L70.1259 23.2992V23.2992L68.3006 25.68ZM62.2206 23.04L61.5229 25.9577L61.5531 25.9649L61.5833 25.9715L62.2206 23.04ZM73.4206 6.15999L72.6337 9.05493L72.6502 9.05943L72.6668 9.06373L73.4206 6.15999ZM86.9406 12.4L85.0888 14.7602L85.1088 14.7759L85.1291 14.7913L86.9406 12.4ZM94.6206 22.16L97.3899 21.0062V21.0061L94.6206 22.16ZM95.8206 42.72L92.9684 41.7899L92.9593 41.8181L92.9506 41.8465L95.8206 42.72ZM92.2206 49.68L89.8276 47.8707L89.8206 47.88L92.2206 49.68ZM76.8606 60L75.8734 57.1671L66.1598 60.5521L76.1702 62.9195L76.8606 60ZM94.3806 69.12L96.6119 67.1147L94.3806 69.12ZM97.1806 99.2L94.4507 97.956L94.4442 97.9704L94.4378 97.9848L97.1806 99.2ZM88.9406 110.16L86.9938 107.877H86.9938L88.9406 110.16ZM75.5006 117.44L76.4233 120.295L76.4321 120.292L76.4408 120.289L75.5006 117.44ZM12.3006 120H9.30063V123H12.3006V120ZM12.3006 3.91999V0.919992H9.30063V3.91999H12.3006ZM56.8606 104.6C60.9047 104.6 64.4373 104.127 67.3406 103.054L65.2607 97.426C63.2573 98.1664 60.4966 98.6 56.8606 98.6V104.6ZM67.3736 103.042C70.191 101.963 72.5946 100.495 74.4588 98.5638L70.1424 94.3962C69.02 95.5588 67.4236 96.5975 65.2277 97.4384L67.3736 103.042ZM74.4588 98.5638C76.2711 96.6868 77.5663 94.5101 78.2962 92.0549L72.545 90.3451C72.1016 91.8365 71.3168 93.1799 70.1424 94.3962L74.4588 98.5638ZM78.3023 92.0342C78.9683 89.7334 79.3006 87.3724 79.3006 84.96H73.3006C73.3006 86.8143 73.0462 88.6133 72.5389 90.3658L78.3023 92.0342ZM79.3006 84.96C79.3006 82.319 78.9104 79.8502 78.0729 77.5954L72.4484 79.6846C72.9976 81.1632 73.3006 82.9076 73.3006 84.96H79.3006ZM78.0729 77.5954C77.1946 75.2307 75.7624 73.2218 73.8133 71.6088L69.9879 76.2312C71.1322 77.1782 71.94 78.316 72.4484 79.6846L78.0729 77.5954ZM73.8594 71.6478C71.8981 69.957 69.4413 68.7688 66.6204 67.9886L65.0209 73.7714C67.2133 74.3778 68.8098 75.2163 69.9418 76.1922L73.8594 71.6478ZM66.6365 67.9931C63.832 67.2005 60.4971 66.84 56.7006 66.84V72.84C60.1575 72.84 62.9026 73.1728 65.0048 73.7669L66.6365 67.9931ZM56.7006 66.84H36.3006V72.84H56.7006V66.84ZM33.3006 69.84V101.6H39.3006V69.84H33.3006ZM36.3006 104.6H56.8606V98.6H36.3006V104.6ZM33.3006 22.16V53.52H39.3006V22.16H33.3006ZM36.3006 56.52H52.0606V50.52H36.3006V56.52ZM52.0606 56.52C55.5728 56.52 58.7667 56.2418 61.6205 55.6594L60.4207 49.7806C58.0479 50.2648 55.2685 50.52 52.0606 50.52V56.52ZM61.6777 55.6471C64.5796 54.9957 67.1482 53.9581 69.296 52.4612L65.8652 47.5388C64.493 48.4952 62.6883 49.271 60.3635 49.7929L61.6777 55.6471ZM69.296 52.4612C71.5002 50.9249 73.1797 48.9053 74.3067 46.4525L68.8546 43.9475C68.1682 45.4414 67.1811 46.6217 65.8652 47.5388L69.296 52.4612ZM74.2918 46.4843C75.4848 43.9657 76.0206 41.0785 76.0206 37.92H70.0206C70.0206 40.4148 69.5964 42.3809 68.8694 43.9157L74.2918 46.4843ZM76.0206 37.92C76.0206 34.7777 75.5862 31.9288 74.6111 29.4585L69.0302 31.6615C69.655 33.2445 70.0206 35.3023 70.0206 37.92H76.0206ZM74.6357 29.5229C73.7074 27.0033 72.2086 24.8959 70.1259 23.2992L66.4753 28.0608C67.5926 28.9174 68.4405 30.0633 69.0056 31.5971L74.6357 29.5229ZM70.1259 23.2992C68.1002 21.7461 65.6398 20.7132 62.8579 20.1085L61.5833 25.9715C63.7081 26.4334 65.3011 27.1605 66.4753 28.0608L70.1259 23.2992ZM62.9184 20.1223C60.1754 19.4663 57.0232 19.16 53.5006 19.16V25.16C56.698 25.16 59.3592 25.4403 61.5229 25.9577L62.9184 20.1223ZM53.5006 19.16H36.3006V25.16H53.5006V19.16ZM53.5006 6.91999C61.1116 6.91999 67.4713 7.65157 72.6337 9.05493L74.2076 3.26505C68.3833 1.68174 61.4629 0.919992 53.5006 0.919992V6.91999ZM72.6668 9.06373C77.9287 10.4298 82.0287 12.3592 85.0888 14.7602L88.7925 10.0398C84.9193 7.00079 80.0059 4.77018 74.1745 3.25625L72.6668 9.06373ZM85.1291 14.7913C88.253 17.1579 90.4682 19.9942 91.8514 23.3138L97.3899 21.0061C95.5731 16.6458 92.6682 12.9754 88.7522 10.0087L85.1291 14.7913ZM91.8514 23.3138C93.2791 26.7403 94.0206 30.6339 94.0206 35.04H100.021C100.021 29.9528 99.1622 25.2597 97.3899 21.0062L91.8514 23.3138ZM94.0206 35.04C94.0206 37.4015 93.6673 39.6469 92.9684 41.7899L98.6728 43.6501C99.574 40.8864 100.021 38.0119 100.021 35.04H94.0206ZM92.9506 41.8465C92.3136 43.9396 91.2829 45.9459 89.8277 47.8707L94.6136 51.4893C96.465 49.0407 97.8344 46.4071 98.6907 43.5935L92.9506 41.8465ZM89.8206 47.88C88.4453 49.7138 86.616 51.4426 84.281 53.0479L87.6802 57.9921C90.4653 56.0774 92.796 53.9129 94.6206 51.48L89.8206 47.88ZM84.281 53.0479C81.9801 54.6298 79.1895 56.0115 75.8734 57.1671L77.8479 62.8329C81.5717 61.5352 84.8612 59.9302 87.6802 57.9921L84.281 53.0479ZM76.1702 62.9195C83.7151 64.7037 88.9128 67.5241 92.1493 71.1253L96.6119 67.1147C92.2751 62.2892 85.7928 59.0296 77.551 57.0805L76.1702 62.9195ZM92.1493 71.1253C95.3516 74.6884 97.0606 79.3946 97.0606 85.52H103.061C103.061 78.2054 100.983 71.9782 96.6119 67.1147L92.1493 71.1253ZM97.0606 85.52C97.0606 90.0236 96.1822 94.1563 94.4507 97.956L99.9105 100.444C102.019 95.817 103.061 90.8297 103.061 85.52H97.0606ZM94.4378 97.9848C92.7595 101.773 90.2906 105.065 86.9938 107.877L90.8875 112.443C94.844 109.068 97.8684 105.054 99.9235 100.415L94.4378 97.9848ZM86.9938 107.877C83.7106 110.678 79.5894 112.932 74.5605 114.591L76.4408 120.289C82.0785 118.428 86.9174 115.829 90.8875 112.442L86.9938 107.877ZM74.5779 114.585C69.6576 116.176 63.8994 117 57.2606 117V123C64.3819 123 70.7837 122.117 76.4233 120.295L74.5779 114.585ZM57.2606 117H12.3006V123H57.2606V117ZM15.3006 120V3.91999H9.30063V120H15.3006ZM12.3006 6.91999H53.5006V0.919992H12.3006V6.91999ZM142.554 120V123H145.554V120H142.554ZM118.394 120H115.394V123H118.394V120ZM118.394 3.91999V0.919992H115.394V3.91999H118.394ZM142.554 3.91999H145.554V0.919992H142.554V3.91999ZM142.554 117H118.394V123H142.554V117ZM121.394 120V3.91999H115.394V120H121.394ZM118.394 6.91999H142.554V0.919992H118.394V6.91999ZM139.554 3.91999V120H145.554V3.91999H139.554ZM248.992 23.28V26.28H251.992V23.28H248.992ZM215.072 23.28V20.28H212.072V23.28H215.072ZM215.072 120V123H218.072V120H215.072ZM190.992 120H187.992V123H190.992V120ZM190.992 23.28H193.992V20.28H190.992V23.28ZM157.072 23.28H154.072V26.28H157.072V23.28ZM157.072 3.91999V0.919992H154.072V3.91999H157.072ZM248.992 3.91999H251.992V0.919992H248.992V3.91999ZM248.992 20.28H215.072V26.28H248.992V20.28ZM212.072 23.28V120H218.072V23.28H212.072ZM215.072 117H190.992V123H215.072V117ZM193.992 120V23.28H187.992V120H193.992ZM190.992 20.28H157.072V26.28H190.992V20.28ZM160.072 23.28V3.91999H154.072V23.28H160.072ZM157.072 6.91999H248.992V0.919992H157.072V6.91999ZM245.992 3.91999V23.28H251.992V3.91999H245.992ZM350.519 100.24L351.559 103.054L351.576 103.048L351.592 103.042L350.519 100.24ZM356.519 96.48L358.678 98.5638V98.5638L356.519 96.48ZM359.639 91.2L362.515 92.0549L362.518 92.0445L362.521 92.0342L359.639 91.2ZM359.479 78.64L362.292 77.5954V77.5954L359.479 78.64ZM356.119 73.92L354.161 76.1922L354.183 76.2119L354.207 76.2312L356.119 73.92ZM350.039 70.88L349.224 73.7669L349.232 73.7692L349.24 73.7714L350.039 70.88ZM320.519 69.84V66.84H317.519V69.84H320.519ZM320.519 101.6H317.519V104.6H320.519V101.6ZM320.519 22.16V19.16H317.519V22.16H320.519ZM320.519 53.52H317.519V56.52H320.519V53.52ZM345.239 52.72L345.839 55.6594L345.868 55.6536L345.896 55.6471L345.239 52.72ZM355.799 45.2L353.088 43.9157L353.081 43.9316L353.073 43.9475L355.799 45.2ZM356.039 30.56L353.224 31.5971L353.236 31.6294L353.249 31.6615L356.039 30.56ZM352.519 25.68L354.345 23.2992V23.2992L352.519 25.68ZM346.439 23.04L345.742 25.9577L345.772 25.9649L345.802 25.9715L346.439 23.04ZM357.639 6.15999L356.852 9.05493L356.869 9.05943L356.886 9.06373L357.639 6.15999ZM371.159 12.4L369.308 14.7602L369.328 14.7759L369.348 14.7913L371.159 12.4ZM378.839 22.16L381.609 21.0062V21.0061L378.839 22.16ZM380.039 42.72L377.187 41.7899L377.178 41.8181L377.169 41.8465L380.039 42.72ZM376.439 49.68L374.046 47.8707L374.039 47.88L376.439 49.68ZM361.079 60L360.092 57.1671L350.379 60.5521L360.389 62.9195L361.079 60ZM378.599 69.12L380.831 67.1147L378.599 69.12ZM381.399 99.2L378.669 97.956L378.663 97.9704L378.657 97.9848L381.399 99.2ZM373.159 110.16L371.213 107.877L373.159 110.16ZM359.719 117.44L360.642 120.295L360.651 120.292L360.66 120.289L359.719 117.44ZM296.519 120H293.519V123H296.519V120ZM296.519 3.91999V0.919992H293.519V3.91999H296.519ZM341.079 104.6C345.123 104.6 348.656 104.127 351.559 103.054L349.479 97.426C347.476 98.1664 344.715 98.6 341.079 98.6V104.6ZM351.592 103.042C354.41 101.963 356.813 100.495 358.678 98.5638L354.361 94.3962C353.239 95.5588 351.642 96.5975 349.446 97.4384L351.592 103.042ZM358.678 98.5638C360.49 96.6868 361.785 94.5101 362.515 92.0549L356.764 90.3451C356.32 91.8365 355.536 93.1799 354.361 94.3962L358.678 98.5638ZM362.521 92.0342C363.187 89.7334 363.519 87.3724 363.519 84.96H357.519C357.519 86.8143 357.265 88.6133 356.758 90.3658L362.521 92.0342ZM363.519 84.96C363.519 82.319 363.129 79.8502 362.292 77.5954L356.667 79.6846C357.216 81.1632 357.519 82.9076 357.519 84.96H363.519ZM362.292 77.5954C361.413 75.2307 359.981 73.2218 358.032 71.6088L354.207 76.2312C355.351 77.1782 356.159 78.316 356.667 79.6846L362.292 77.5954ZM358.078 71.6478C356.117 69.957 353.66 68.7688 350.839 67.9886L349.24 73.7714C351.432 74.3778 353.029 75.2163 354.161 76.1922L358.078 71.6478ZM350.855 67.9931C348.051 67.2005 344.716 66.84 340.919 66.84V72.84C344.376 72.84 347.121 73.1728 349.224 73.7669L350.855 67.9931ZM340.919 66.84H320.519V72.84H340.919V66.84ZM317.519 69.84V101.6H323.519V69.84H317.519ZM320.519 104.6H341.079V98.6H320.519V104.6ZM317.519 22.16V53.52H323.519V22.16H317.519ZM320.519 56.52H336.279V50.52H320.519V56.52ZM336.279 56.52C339.792 56.52 342.985 56.2418 345.839 55.6594L344.639 49.7806C342.267 50.2648 339.487 50.52 336.279 50.52V56.52ZM345.896 55.6471C348.798 54.9957 351.367 53.9581 353.515 52.4612L350.084 47.5388C348.712 48.4952 346.907 49.271 344.582 49.7929L345.896 55.6471ZM353.515 52.4612C355.719 50.9249 357.398 48.9053 358.525 46.4525L353.073 43.9475C352.387 45.4414 351.4 46.6217 350.084 47.5388L353.515 52.4612ZM358.511 46.4843C359.704 43.9657 360.239 41.0785 360.239 37.92H354.239C354.239 40.4148 353.815 42.3809 353.088 43.9157L358.511 46.4843ZM360.239 37.92C360.239 34.7777 359.805 31.9288 358.83 29.4585L353.249 31.6615C353.874 33.2445 354.239 35.3023 354.239 37.92H360.239ZM358.854 29.5229C357.926 27.0033 356.427 24.8959 354.345 23.2992L350.694 28.0608C351.811 28.9174 352.659 30.0633 353.224 31.5971L358.854 29.5229ZM354.345 23.2992C352.319 21.7461 349.859 20.7132 347.077 20.1085L345.802 25.9715C347.927 26.4334 349.52 27.1605 350.694 28.0608L354.345 23.2992ZM347.137 20.1223C344.394 19.4663 341.242 19.16 337.719 19.16V25.16C340.917 25.16 343.578 25.4403 345.742 25.9577L347.137 20.1223ZM337.719 19.16H320.519V25.16H337.719V19.16ZM337.719 6.91999C345.33 6.91999 351.69 7.65157 356.852 9.05493L358.426 3.26505C352.602 1.68174 345.682 0.919992 337.719 0.919992V6.91999ZM356.886 9.06373C362.147 10.4298 366.247 12.3592 369.308 14.7602L373.011 10.0398C369.138 7.00079 364.225 4.77018 358.393 3.25625L356.886 9.06373ZM369.348 14.7913C372.472 17.1579 374.687 19.9942 376.07 23.3138L381.609 21.0061C379.792 16.6458 376.887 12.9754 372.971 10.0087L369.348 14.7913ZM376.07 23.3138C377.498 26.7403 378.239 30.6339 378.239 35.04H384.239C384.239 29.9528 383.381 25.2597 381.609 21.0062L376.07 23.3138ZM378.239 35.04C378.239 37.4015 377.886 39.6469 377.187 41.7899L382.892 43.6501C383.793 40.8864 384.239 38.0119 384.239 35.04H378.239ZM377.169 41.8465C376.532 43.9396 375.502 45.9459 374.046 47.8707L378.832 51.4893C380.684 49.0407 382.053 46.4071 382.909 43.5935L377.169 41.8465ZM374.039 47.88C372.664 49.7138 370.835 51.4426 368.5 53.0479L371.899 57.9921C374.684 56.0774 377.015 53.9129 378.839 51.48L374.039 47.88ZM368.5 53.0479C366.199 54.6298 363.408 56.0115 360.092 57.1671L362.067 62.8329C365.79 61.5352 369.08 59.9302 371.899 57.9921L368.5 53.0479ZM360.389 62.9195C367.934 64.7037 373.132 67.5241 376.368 71.1253L380.831 67.1147C376.494 62.2892 370.012 59.0296 361.77 57.0805L360.389 62.9195ZM376.368 71.1253C379.57 74.6884 381.279 79.3946 381.279 85.52H387.279C387.279 78.2054 385.202 71.9782 380.831 67.1147L376.368 71.1253ZM381.279 85.52C381.279 90.0236 380.401 94.1563 378.669 97.956L384.129 100.444C386.238 95.817 387.279 90.8297 387.279 85.52H381.279ZM378.657 97.9848C376.978 101.773 374.509 105.065 371.213 107.877L375.106 112.443C379.063 109.068 382.087 105.054 384.142 100.415L378.657 97.9848ZM371.213 107.877C367.929 110.678 363.808 112.932 358.779 114.591L360.66 120.289C366.297 118.428 371.136 115.829 375.106 112.442L371.213 107.877ZM358.797 114.585C353.876 116.176 348.118 117 341.479 117V123C348.601 123 355.002 122.117 360.642 120.295L358.797 114.585ZM341.479 117H296.519V123H341.479V117ZM299.519 120V3.91999H293.519V120H299.519ZM296.519 6.91999H337.719V0.919992H296.519V6.91999ZM460.613 98.88L461.76 101.652L461.78 101.644L461.801 101.635L460.613 98.88ZM468.453 93.28L466.211 91.2869V91.2869L468.453 93.28ZM473.333 84.56L470.483 83.6247V83.6247L473.333 84.56ZM475.013 3.91999V0.919992H472.013V3.91999H475.013ZM499.013 3.91999H502.013V0.919992H499.013V3.91999ZM495.573 92.48L492.776 91.3963L492.773 91.4031L492.77 91.4099L495.573 92.48ZM485.893 107.68L483.759 105.572L485.893 107.68ZM470.533 117.68L469.423 114.893L470.533 117.68ZM429.653 117.68L428.543 120.467L428.552 120.47L429.653 117.68ZM414.293 107.68L416.428 105.572L414.293 107.68ZM404.533 92.48L401.727 93.5417L401.733 93.557L401.739 93.5722L404.533 92.48ZM401.173 3.91999V0.919992H398.173V3.91999H401.173ZM425.173 3.91999H428.173V0.919992H425.173V3.91999ZM431.733 93.28L433.975 91.2869L431.733 93.28ZM439.573 98.88L438.386 101.635L438.406 101.644L438.426 101.652L439.573 98.88ZM450.133 103.8C454.357 103.8 458.249 103.105 461.76 101.652L459.466 96.1079C456.791 97.215 453.696 97.8 450.133 97.8V103.8ZM461.801 101.635C465.277 100.137 468.256 98.0172 470.695 95.2731L466.211 91.2869C464.383 93.3428 462.136 94.9567 459.426 96.125L461.801 101.635ZM470.695 95.2731C473.132 92.5313 474.951 89.2527 476.184 85.4953L470.483 83.6247C469.476 86.6939 468.04 89.2287 466.211 91.2869L470.695 95.2731ZM476.184 85.4953C477.419 81.7296 478.013 77.5664 478.013 73.04H472.013C472.013 77.0469 471.487 80.5638 470.483 83.6247L476.184 85.4953ZM478.013 73.04V3.91999H472.013V73.04H478.013ZM475.013 6.91999H499.013V0.919992H475.013V6.91999ZM496.013 3.91999V73.04H502.013V3.91999H496.013ZM496.013 73.04C496.013 79.7496 494.921 85.8576 492.776 91.3963L498.371 93.5637C500.812 87.2624 502.013 80.4104 502.013 73.04H496.013ZM492.77 91.4099C490.672 96.9068 487.666 101.615 483.759 105.572L488.028 109.788C492.547 105.211 495.995 99.7865 498.376 93.5501L492.77 91.4099ZM483.759 105.572C479.859 109.521 475.097 112.633 469.423 114.893L471.643 120.467C478.023 117.927 483.5 114.373 488.028 109.788L483.759 105.572ZM469.423 114.893C463.804 117.131 457.389 118.28 450.133 118.28V124.28C458.024 124.28 465.209 123.029 471.643 120.467L469.423 114.893ZM450.133 118.28C442.878 118.28 436.433 117.131 430.755 114.89L428.552 120.47C435.033 123.029 442.242 124.28 450.133 124.28V118.28ZM430.763 114.893C425.089 112.633 420.327 109.521 416.428 105.572L412.159 109.788C416.686 114.373 422.164 117.927 428.543 120.467L430.763 114.893ZM416.428 105.572C412.515 101.61 409.48 96.8941 407.327 91.3878L401.739 93.5722C404.173 99.7993 407.644 105.216 412.159 109.788L416.428 105.572ZM407.339 91.4183C405.241 85.8735 404.173 79.7578 404.173 73.04H398.173C398.173 80.4022 399.345 87.2465 401.727 93.5417L407.339 91.4183ZM404.173 73.04V3.91999H398.173V73.04H404.173ZM401.173 6.91999H425.173V0.919992H401.173V6.91999ZM422.173 3.91999V73.04H428.173V3.91999H422.173ZM422.173 73.04C422.173 77.5664 422.767 81.7296 424.003 85.4953L429.704 83.6247C428.699 80.5638 428.173 77.0469 428.173 73.04H422.173ZM424.003 85.4953C425.236 89.2527 427.054 92.5313 429.491 95.2731L433.975 91.2869C432.146 89.2287 430.711 86.6939 429.704 83.6247L424.003 85.4953ZM429.491 95.2731C431.93 98.0172 434.909 100.137 438.386 101.635L440.761 96.125C438.05 94.9567 435.803 93.3428 433.975 91.2869L429.491 95.2731ZM438.426 101.652C441.942 103.107 445.862 103.8 450.133 103.8V97.8C446.511 97.8 443.391 97.2131 440.72 96.1079L438.426 101.652ZM590.712 100.48H593.712V97.48H590.712V100.48ZM590.712 120V123H593.712V120H590.712ZM521.832 120H518.832V123H521.832V120ZM521.832 3.91999V0.919992H518.832V3.91999H521.832ZM545.832 3.91999H548.832V0.919992H545.832V3.91999ZM545.832 100.48H542.832V103.48H545.832V100.48ZM587.712 100.48V120H593.712V100.48H587.712ZM590.712 117H521.832V123H590.712V117ZM524.832 120V3.91999H518.832V120H524.832ZM521.832 6.91999H545.832V0.919992H521.832V6.91999ZM542.832 3.91999V100.48H548.832V3.91999H542.832ZM545.832 103.48H590.712V97.48H545.832V103.48ZM674.306 100.48H677.306V97.48H674.306V100.48ZM674.306 120V123H677.306V120H674.306ZM605.426 120H602.426V123H605.426V120ZM605.426 3.91999V0.919992H602.426V3.91999H605.426ZM629.426 3.91999H632.426V0.919992H629.426V3.91999ZM629.426 100.48H626.426V103.48H629.426V100.48ZM671.306 100.48V120H677.306V100.48H671.306ZM674.306 117H605.426V123H674.306V117ZM608.426 120V3.91999H602.426V120H608.426ZM605.426 6.91999H629.426V0.919992H605.426V6.91999ZM626.426 3.91999V100.48H632.426V3.91999H626.426ZM629.426 103.48H674.306V97.48H629.426V103.48Z" fill="url(#paint0_linear_393_576)" style="mix-blend-mode:color-dodge"/>
<path style="mix-blend-mode:color-dodge" d="M61.8606 103.6C65.7006 103.6 68.8473 103.147 71.3006 102.24C73.8073 101.28 75.8073 100.027 77.3006 98.48C78.794 96.9333 79.834 95.1733 80.4206 93.2C81.0073 91.1733 81.3006 89.0933 81.3006 86.96C81.3006 84.6133 80.954 82.5067 80.2606 80.64C79.5673 78.7733 78.4473 77.2 76.9006 75.92C75.354 74.5867 73.3273 73.5733 70.8206 72.88C68.3673 72.1867 65.3273 71.84 61.7006 71.84H41.3006V103.6H61.8606ZM41.3006 24.16V55.52H57.0606C60.4206 55.52 63.4073 55.2533 66.0206 54.72C68.634 54.1333 70.8206 53.2267 72.5806 52C74.3406 50.7733 75.674 49.1733 76.5806 47.2C77.5406 45.1733 78.0206 42.7467 78.0206 39.92C78.0206 37.04 77.6206 34.5867 76.8206 32.56C76.074 30.5333 74.9006 28.9067 73.3006 27.68C71.7006 26.4533 69.674 25.5733 67.2206 25.04C64.7673 24.4533 61.8606 24.16 58.5006 24.16H41.3006ZM58.5006 5.91999C66.2873 5.91999 72.9273 6.66666 78.4206 8.15999C83.9673 9.6 88.474 11.68 91.9406 14.4C95.4606 17.0667 98.0206 20.32 99.6206 24.16C101.221 28 102.021 32.2933 102.021 37.04C102.021 39.7067 101.621 42.2667 100.821 44.72C100.074 47.1733 98.874 49.4933 97.2206 51.68C95.6206 53.8133 93.5406 55.76 90.9806 57.52C88.4206 59.28 85.3806 60.7733 81.8606 62C89.754 63.8667 95.594 66.9067 99.3806 71.12C103.167 75.3333 105.061 80.8 105.061 87.52C105.061 92.4267 104.101 96.9867 102.181 101.2C100.314 105.413 97.5673 109.067 93.9406 112.16C90.314 115.253 85.834 117.68 80.5006 119.44C75.2206 121.147 69.1406 122 62.2606 122H17.3006V5.91999H58.5006ZM147.554 122H123.394V5.91999H147.554V122ZM253.992 25.28H220.072V122H195.992V25.28H162.072V5.91999H253.992V25.28ZM346.079 103.6C349.919 103.6 353.066 103.147 355.519 102.24C358.026 101.28 360.026 100.027 361.519 98.48C363.013 96.9333 364.053 95.1733 364.639 93.2C365.226 91.1733 365.519 89.0933 365.519 86.96C365.519 84.6133 365.173 82.5067 364.479 80.64C363.786 78.7733 362.666 77.2 361.119 75.92C359.573 74.5867 357.546 73.5733 355.039 72.88C352.586 72.1867 349.546 71.84 345.919 71.84H325.519V103.6H346.079ZM325.519 24.16V55.52H341.279C344.639 55.52 347.626 55.2533 350.239 54.72C352.853 54.1333 355.039 53.2267 356.799 52C358.559 50.7733 359.893 49.1733 360.799 47.2C361.759 45.1733 362.239 42.7467 362.239 39.92C362.239 37.04 361.839 34.5867 361.039 32.56C360.293 30.5333 359.119 28.9067 357.519 27.68C355.919 26.4533 353.893 25.5733 351.439 25.04C348.986 24.4533 346.079 24.16 342.719 24.16H325.519ZM342.719 5.91999C350.506 5.91999 357.146 6.66666 362.639 8.15999C368.186 9.6 372.693 11.68 376.159 14.4C379.679 17.0667 382.239 20.32 383.839 24.16C385.439 28 386.239 32.2933 386.239 37.04C386.239 39.7067 385.839 42.2667 385.039 44.72C384.293 47.1733 383.093 49.4933 381.439 51.68C379.839 53.8133 377.759 55.76 375.199 57.52C372.639 59.28 369.599 60.7733 366.079 62C373.973 63.8667 379.813 66.9067 383.599 71.12C387.386 75.3333 389.279 80.8 389.279 87.52C389.279 92.4267 388.319 96.9867 386.399 101.2C384.533 105.413 381.786 109.067 378.159 112.16C374.533 115.253 370.053 117.68 364.719 119.44C359.439 121.147 353.359 122 346.479 122H301.519V5.91999H342.719ZM455.133 102.8C459.026 102.8 462.52 102.16 465.613 100.88C468.706 99.5467 471.32 97.68 473.453 95.28C475.586 92.88 477.213 89.9733 478.333 86.56C479.453 83.1467 480.013 79.3067 480.013 75.04V5.91999H504.013V75.04C504.013 82.08 502.866 88.56 500.573 94.48C498.333 100.347 495.106 105.413 490.893 109.68C486.68 113.947 481.56 117.28 475.533 119.68C469.506 122.08 462.706 123.28 455.133 123.28C447.56 123.28 440.733 122.08 434.653 119.68C428.626 117.28 423.506 113.947 419.293 109.68C415.08 105.413 411.826 100.347 409.533 94.48C407.293 88.56 406.173 82.08 406.173 75.04V5.91999H430.173V75.04C430.173 79.3067 430.733 83.1467 431.853 86.56C432.973 89.9733 434.6 92.88 436.733 95.28C438.866 97.68 441.48 99.5467 444.573 100.88C447.666 102.16 451.186 102.8 455.133 102.8ZM595.712 102.48V122H526.832V5.91999H550.832V102.48H595.712ZM679.306 102.48V122H610.426V5.91999H634.426V102.48H679.306Z" fill="white"/>
<defs>
<linearGradient id="paint0_linear_393_576" x1="382.196" y1="152.5" x2="380.05" y2="-25.5092" gradientUnits="userSpaceOnUse">
<stop/>
<stop offset="0.23" stop-color="white"/>
<stop offset="0.31" stop-color="#F2F2F2"/>
<stop offset="0.45" stop-color="#CECECE"/>
<stop offset="0.65" stop-color="#959595"/>
<stop offset="0.88" stop-color="#464646"/>
<stop offset="1" stop-color="#1C1C1C"/>
</linearGradient>
</defs>
</svg>
